<svg xmlns="http://www.w3.org/2000/svg" viewBox="0 0 60 60" fill="none">
  <path stroke="white"
    d="M59.5 30C59.5 46.2924 46.2924 59.5 30 59.5C13.7076 59.5 0.5 46.2924 0.5 30C0.5 13.7076 13.7076 0.5 30 0.5C46.2924 0.5 59.5 13.7076 59.5 30Z" />
  <path fill="white"
    d="M7.43456 21.25L14.5196 21.2719C17.8369 21.2822 20.2786 22.5876 20.269 25.6774C20.2627 27.721 18.7864 29.0143 17.0899 29.5079C19.282 30.0619 20.7255 31.5386 20.7185 33.7857C20.7068 37.5776 17.4342 38.7395 13.9716 38.7288L7.38538 38.7084L7.4394 21.25H7.43456ZM14.1439 28.4527C16.3134 28.4594 17.4156 27.5379 17.4205 25.9688C17.4249 24.545 16.5028 23.5978 14.2364 23.5908L10.1733 23.5782L10.1582 28.4404L14.1439 28.4527ZM14.221 36.3856C16.7151 36.3933 17.8658 35.4234 17.8715 33.5783C17.877 31.8059 16.8826 30.7809 14.19 30.7726L10.151 30.7601L10.1337 36.3729L14.221 36.3856Z" />
  <path fill="white"
    d="M39.0701 32.911L41.937 32.9199C42.0795 35.3902 43.6684 36.8141 46.0172 36.8214C48.1867 36.8281 49.7349 35.7626 49.7402 34.0385C49.7449 32.5421 48.5992 31.8654 46.5329 31.3602L44.4666 30.8308C41.8487 30.1737 39.7081 28.6222 39.7166 25.8764C39.7256 22.9561 42.449 20.8482 45.9164 20.859C49.6309 20.8705 52.0939 23.0719 52.2822 26.3898L49.4395 26.381C49.3193 24.5355 47.9528 23.2092 45.8075 23.2026C44.0108 23.197 42.5356 24.1659 42.531 25.6381C42.5265 27.0861 43.5706 27.7383 45.54 28.2674L47.7804 28.8458C50.5241 29.5516 52.5876 30.9818 52.579 33.7761C52.5696 36.8174 49.9181 39.1532 45.9276 39.1408C41.8209 39.1329 39.2327 36.7035 39.0701 32.911Z" />
  <path d="M22.8662 29.9482H36.9121" stroke="white" stroke-width="2" />
</svg>