<svg viewBox="0 0 311 45" fill="none" xmlns="http://www.w3.org/2000/svg">
	<path fill-rule="evenodd" clip-rule="evenodd"
		d="M117.015 23.598H111.411C111.752 31.0097 116.826 35.7425 124.853 35.7331C132.652 35.7331 137.821 31.1516 137.821 25.2072C137.821 19.7455 133.779 16.9626 128.412 15.5995L124.029 14.4825C120.177 13.4602 118.132 12.1918 118.132 9.36159C118.132 6.48401 121.01 4.5814 124.521 4.5814C128.715 4.5814 131.394 7.16554 131.64 10.772H137.196C136.808 4.28797 131.98 0 124.72 0C117.943 0 112.633 4.13651 112.633 9.84434C112.633 15.2114 116.826 18.231 121.947 19.4994L125.989 20.5217C130.03 21.4966 132.274 22.8124 132.274 25.7373C132.274 29.1071 129.254 31.199 125.014 31.199C120.423 31.199 117.309 28.4255 117.015 23.598ZM13.8484 0.833008H0.00952148V34.9569H12.8829C19.6509 34.9569 26.0402 32.6662 26.0402 25.2545C26.0402 20.8624 23.21 17.9849 18.922 16.9152C22.235 15.9403 25.1126 13.4035 25.1126 9.40894C25.1126 3.36982 20.3324 0.833008 13.8484 0.833008ZM19.5467 9.99581C19.5467 13.0627 17.398 14.8707 13.1574 14.8707H5.36711V5.36708H13.3088C17.7388 5.36708 19.5467 7.2129 19.5467 9.99581ZM20.4744 24.8664C20.4744 28.4729 18.231 30.3755 13.3562 30.3755H5.36711V19.4047H13.2615C18.5244 19.4047 20.4744 21.402 20.4744 24.8664ZM30.7541 11.321V26.3336C30.7541 32.4768 34.1239 35.7425 39.2448 35.7425C42.8039 35.7425 45.2839 34.086 46.4577 31.7007C46.363 32.3349 46.3157 33.0637 46.3157 33.7452V34.9663H51.3325V11.321H46.2589V24.8664C46.2589 29.1544 44.1102 31.7385 40.7025 31.7385C37.3422 31.7385 35.8277 29.3532 35.8277 25.4533V11.321H30.7541ZM57.277 1.66595H62.7861V7.26965H57.277V1.66595ZM57.4758 11.321H62.5494V34.9663H57.4758V11.321ZM73.7568 0.833008H68.6832V34.9569H73.7568V0.833008ZM78.4802 23.1626C78.4802 15.3629 83.3077 10.5354 89.4509 10.5354C93.2561 10.5354 95.6888 12.5326 96.9099 14.5772C96.8152 13.8484 96.8152 13.1669 96.8152 12.4855V12.4853V0.833008H101.889V34.9569H96.8152V33.7831V33.783C96.8152 33.0069 96.8152 32.3727 96.9099 31.6912C95.7929 33.6412 93.3035 35.7331 89.3563 35.7331C83.1089 35.7425 78.4802 31.3505 78.4802 23.1626ZM90.4259 31.7859C94.2784 31.7859 97.1087 28.3214 97.1087 23.1058C97.1087 17.8902 94.3258 14.5299 90.4259 14.5299C86.526 14.5299 83.6958 18.0417 83.6958 23.1626C83.6958 28.3782 86.4787 31.7859 90.4259 31.7859ZM151.631 34.4268L142.27 11.321H147.977L153.392 26.4851C153.476 26.7376 153.568 26.994 153.662 27.2565L153.662 27.2571L153.663 27.2577L153.663 27.2582L153.663 27.2584C153.897 27.9105 154.144 28.6005 154.319 29.3626C154.613 28.293 154.906 27.3654 155.247 26.4851L160.217 11.321H165.527L152.947 45H147.58L151.631 34.4268ZM177.955 26.9678H172.882C173.08 32.2781 176.98 35.7425 183.568 35.7425C189.608 35.7425 193.413 32.4201 193.413 28.0374C193.413 23.9861 190.441 21.8942 185.954 21.0139L182.688 20.3797C179.858 19.8496 178.741 19.0166 178.741 17.3601C178.741 15.5048 180.445 14.3879 182.982 14.3879C185.906 14.3879 187.762 15.8456 188.055 18.4297H193.072C192.826 13.5549 189.172 10.5353 183.124 10.5353C177.567 10.5353 173.667 13.5644 173.667 17.6062C173.667 21.402 176.498 23.6927 181.174 24.573L184.392 25.2072C187.071 25.7467 188.386 26.7217 188.386 28.4255C188.386 30.5269 186.437 31.89 183.512 31.89C180 31.89 178.097 29.9874 177.955 26.9678ZM207.981 25.0652V15.4101H199.3V11.3115H207.981V3.12366H213.054V11.3115H223.239V15.4101H213.054V24.4783C213.054 29.3058 215.25 30.9623 220.466 30.9623C221.535 30.9623 222.558 30.8676 223.684 30.6689V34.9095C222.567 35.2029 221.1 35.4017 219.585 35.4017C212.42 35.4017 207.981 32.42 207.981 25.0652ZM242.01 10.5353C235.327 10.5353 230.452 15.7036 230.452 23.0679C230.452 31.2558 235.185 35.7425 242.246 35.7331C248.778 35.7331 252.479 31.9373 252.971 27.4506H247.897C247.415 30.4701 244.973 31.7859 242.246 31.7859C238.451 31.7859 235.715 28.8136 235.62 24.2322H253.17V23.1626C253.17 15.5048 249.175 10.5353 242.01 10.5353ZM241.963 14.3879C245.664 14.3879 247.86 16.9247 247.907 20.6258H235.677C235.971 17.0667 238.403 14.3879 241.963 14.3879ZM258.386 11.321H262.92V12.9775C262.92 13.517 262.872 14.1512 262.825 14.5867C263.705 12.0498 265.409 10.5448 267.794 10.5448C269.886 10.5448 271.789 11.8132 272.527 14.7854C273.502 12.296 275.159 10.5448 278.084 10.5448C281.643 10.5448 283.735 13.517 283.735 18.4392V34.9663H279.201V19.2154C279.201 16.3378 278.566 14.5393 276.617 14.5393C274.08 14.5393 273.304 17.1708 273.304 20.2472V34.9663H268.817V19.3574C268.817 16.4325 268.135 14.5299 266.138 14.5299C263.753 14.5299 262.92 17.2087 262.92 20.3323V34.9569H258.386V11.321ZM294.952 26.9678H289.878C290.077 32.2781 293.977 35.7425 300.555 35.7425C306.594 35.7425 310.4 32.4201 310.4 28.0374C310.4 23.9861 307.427 21.8942 302.941 21.0139L299.675 20.3797C296.845 19.8496 295.728 19.0166 295.728 17.3601C295.728 15.5048 297.432 14.3879 299.968 14.3879C302.893 14.3879 304.749 15.8456 305.042 18.4297H310.059C309.822 13.5549 306.168 10.5353 300.12 10.5353C294.563 10.5353 290.664 13.5644 290.664 17.6062C290.664 21.402 293.494 23.6927 298.17 24.573L301.388 25.2072C304.067 25.7467 305.383 26.7217 305.383 28.4255C305.383 30.5269 303.433 31.89 300.508 31.89C296.996 31.89 295.094 29.9874 294.952 26.9678Z"
		fill="#FAFAFA" />

</svg>