<svg viewBox="0 0 400 45" fill="none" xmlns="http://www.w3.org/2000/svg">
    <path fill-rule="evenodd" clip-rule="evenodd"
        d="M206.996 23.5747H212.431C212.716 28.2996 215.736 31.0141 220.189 31.0141C224.302 31.0141 227.231 28.9666 227.231 25.6684C227.231 22.8057 225.055 21.5179 221.135 20.5637L217.214 19.5631C212.248 18.3217 208.18 15.3663 208.18 10.1133C208.18 4.52686 213.331 0.478271 219.905 0.478271C226.946 0.478271 231.629 4.67509 232.005 11.0213H226.616C226.377 7.4915 223.779 4.96229 219.712 4.96229C216.306 4.96229 213.514 6.82445 213.514 9.64086C213.514 12.4109 215.498 13.6524 219.234 14.653L223.485 15.7462C228.691 17.0803 232.611 19.804 232.611 25.1496C232.611 30.9677 227.598 35.4518 220.033 35.4518C212.238 35.461 207.326 30.8288 206.996 23.5747ZM0 1.29364H13.4227C19.7117 1.29364 24.3481 3.77653 24.3481 9.68727C24.3481 13.5969 21.5571 16.0798 18.3437 17.034C22.5027 18.0809 25.2479 20.8973 25.2479 25.196C25.2479 32.4501 19.0507 34.6922 12.4862 34.6922H0V1.29364ZM12.7617 15.0329C16.8748 15.0329 18.9589 13.2634 18.9589 10.2617C18.9589 7.53791 17.2053 5.73133 12.9086 5.73133H5.20566V15.0329H12.7617ZM12.9545 30.2081C17.6827 30.2081 19.8586 28.346 19.8586 24.8162C19.8586 21.4254 17.9673 19.4706 12.8626 19.4706H5.20566V30.2081H12.9545ZM29.8292 26.2521V11.5586H34.7503V25.3905C34.7503 29.2075 36.2192 31.5421 39.4785 31.5421C42.7837 31.5421 44.8678 29.0129 44.8678 24.8161V11.5586H49.7888V34.7013H44.9229V33.5062C44.9229 32.8391 44.9688 32.1258 45.0606 31.5051C43.9221 33.8397 41.5167 35.461 38.0646 35.461C33.0977 35.461 29.8292 32.2647 29.8292 26.2521ZM60.8978 2.10889H55.5544V7.59347H60.8978V2.10889ZM60.6683 11.5587H55.7472V34.7014H60.6683V11.5587ZM66.6177 1.29364H71.5387V34.6922H66.6177V1.29364ZM86.7608 10.7898C80.8023 10.7898 76.12 15.5146 76.12 23.1486C76.12 31.1624 80.6095 35.4611 86.669 35.4518C90.4975 35.4518 92.9121 33.4044 93.9955 31.4959C93.9037 32.1629 93.9037 32.7836 93.9037 33.5432V33.5434V34.6922H98.8247V1.29364H93.9037V12.6982V12.6984C93.9037 13.3654 93.9037 14.0324 93.9955 14.7457C92.8111 12.7446 90.4516 10.7898 86.7608 10.7898ZM94.1883 23.093C94.1883 28.1977 91.4432 31.5885 87.7065 31.5885C83.878 31.5885 81.1788 28.2533 81.1788 23.1486C81.1788 18.1365 83.9239 14.6994 87.7065 14.6994C91.4983 14.6994 94.1883 17.9883 94.1883 23.093ZM236.917 11.5586L245.997 34.1732L242.068 44.5217H247.273L259.475 11.5586H254.324L249.504 26.4003C249.174 27.2619 248.889 28.1698 248.604 29.2167C248.434 28.4704 248.194 27.7946 247.967 27.156C247.876 26.8988 247.786 26.6477 247.705 26.4003L242.453 11.5586H236.917ZM266.618 26.8729H271.539C271.676 29.8283 273.522 31.6904 276.928 31.6904C279.765 31.6904 281.656 30.3564 281.656 28.2996C281.656 26.632 280.38 25.6778 277.782 25.1497L274.66 24.529C270.125 23.6674 267.38 21.4254 267.38 17.7103C267.38 13.7544 271.162 10.7897 276.552 10.7897C282.418 10.7897 285.962 13.7451 286.192 18.5163H281.326C281.041 15.9871 279.242 14.5604 276.405 14.5604C273.944 14.5604 272.292 15.6536 272.292 17.4694C272.292 19.0907 273.375 19.906 276.12 20.4248L279.288 21.0455C283.639 21.9071 286.522 23.9546 286.522 27.9198C286.522 32.2093 282.831 35.4611 276.974 35.4611C270.584 35.4611 266.801 32.0703 266.618 26.8729ZM300.661 15.5609V25.0107C300.661 32.2092 304.958 35.1275 311.917 35.1275C313.386 35.1275 314.809 34.933 315.892 34.6458V30.4953C314.8 30.6898 313.808 30.7825 312.771 30.7825C307.712 30.7825 305.582 29.1612 305.582 24.4363V15.5609H315.461V11.5494H305.582V3.53558H300.661V11.5494H292.242V15.5609H300.661ZM322.457 23.0559C322.457 15.8482 327.185 10.7897 333.667 10.7897C340.617 10.7897 344.491 15.6536 344.491 23.1486V24.1955H327.47C327.561 28.6795 330.215 31.5885 333.896 31.5885C336.541 31.5885 338.909 30.3008 339.377 27.3454H344.299C343.83 31.7368 340.231 35.4518 333.896 35.4518C327.038 35.4611 322.457 31.0697 322.457 23.0559ZM339.377 20.6657C339.332 17.0433 337.202 14.5604 333.612 14.5604C330.16 14.5604 327.8 17.1822 327.516 20.6657H339.377ZM353.948 11.5587H349.55V34.6922H353.948V20.3785C353.948 17.3212 354.756 14.6994 357.069 14.6994C359.007 14.6994 359.668 16.5615 359.668 19.4243V34.7014H364.019V20.2951C364.019 17.2842 364.772 14.7086 367.233 14.7086C369.124 14.7086 369.739 16.4689 369.739 19.2853V34.7014H374.137V18.5256C374.137 13.7081 372.108 10.799 368.656 10.799C365.819 10.799 364.212 12.5129 363.267 14.9495C362.55 12.0405 360.705 10.799 358.676 10.799C356.362 10.799 354.71 12.2721 353.856 14.755C353.902 14.3288 353.948 13.7081 353.948 13.18V11.5587ZM380.086 26.8729H385.007C385.145 29.8283 386.99 31.6904 390.397 31.6904C393.234 31.6904 395.125 30.3564 395.125 28.2996C395.125 26.632 393.849 25.6778 391.25 25.1497L388.129 24.529C383.593 23.6674 380.848 21.4254 380.848 17.7103C380.848 13.7544 384.631 10.7897 390.02 10.7897C395.887 10.7897 399.431 13.7451 399.669 18.5163H394.804C394.519 15.9871 392.719 14.5604 389.882 14.5604C387.422 14.5604 385.769 15.6536 385.769 17.4694C385.769 19.0907 386.853 19.906 389.598 20.4248L392.765 21.0455C397.117 21.9071 400 23.9546 400 27.9198C400 32.2093 396.309 35.4611 390.452 35.4611C384.062 35.4611 380.279 32.0703 380.086 26.8729ZM104.021 16.1446H202.837V19.8504H104.021V16.1446Z"
        fill="#FAFAFA" />
</svg>