<?xml version="1.0" encoding="UTF-8"?>
<svg xmlns="http://www.w3.org/2000/svg">
    <symbol id="profile" viewBox="0 0 40 40" fill="none">
        <path d="M4.5 34.5C7.52583 29.2692 13.5225 25.5 20 25.5C26.4775 25.5 32.4742 29.2692 35.5 34.5" stroke="white"
            style="stroke: currentColor" stroke-linecap="round" />
        <path
            d="M30.5 15C30.5 20.799 25.799 25.5 20 25.5C14.201 25.5 9.5 20.799 9.5 15C9.5 9.20101 14.201 4.5 20 4.5C25.799 4.5 30.5 9.20101 30.5 15Z"
            stroke="white" style="stroke: currentColor" />
    </symbol>
    <symbol id="portfolio" viewBox="0 0 40 40" fill="none">
        <defs>
            <rect id="rect" width="9" height="10" stroke="white" style="stroke: currentColor" stroke-linejoin="round">
            </rect>
            <line id="h-line" x1="17.5" y1="0" x2="36.5" y2="0" stroke="white" style="stroke: currentColor"
                stroke-linecap="round" stroke-linejoin="round"></line>
        </defs>
        <use href="#rect" x="4" y="6.5"></use>
        <use href="#rect" x="4" y="23.5"></use>
        <use href="#h-line" y="6.5"></use>
        <use href="#h-line" y="23.5"></use>
        <use href="#h-line" y="11.5"></use>
        <use href="#h-line" y="28.5"></use>
        <use href="#h-line" y="16.5"></use>
        <use href="#h-line" y="33.5"></use>
    </symbol>
    <symbol id="neubau" viewBox="0 0 40 40" fill="none">
        <path stroke="white" stroke-linejoin="round" style="stroke: currentColor"
            d="M20 15.011L21.5898 20.9157L27.4945 22.5055L21.5898 24.0953L20 30L18.4102 24.0953L12.5055 22.5055L18.4102 20.9157L20 15.011Z" />
        <path stroke="white" stroke-linecap="square" stroke-linejoin="round" style="stroke: currentColor"
            d="M6.5 35.5V17.1703L20 4.5L33.5 17.1703V35.5" />
        <path stroke="white" stroke-linecap="round" style="stroke: currentColor" d="M0.5 35.5L39.5 35.5" />
    </symbol>
    <symbol id="sanierung" viewBox="0 0 40 40" fill="none">
        <path
            d="M6.5 35.1548L6.5 32.829M33.5 35.1548V32.829M18.3125 5.70404L20 4.15479L21.6875 5.70404M14.9375 8.80254L11.5625 11.9011M8.1875 14.9996L6.5 16.5488L6.5 18.8746M31.8125 14.9996L33.5 16.5488V18.8746M28.4375 11.9011L25.0625 8.80254M6.5 23.5261L6.5 28.1775M33.5 28.1775V23.5261"
            stroke="white" style="stroke: currentColor" stroke-linecap="square" stroke-linejoin="round" />
        <path d="M0.5 35.5298L39.5 35.5298" stroke="white" style="stroke: currentColor" stroke-linecap="round" />
        <path
            d="M17.1989 16.5185L20.6856 20.0588L13.7367 27.1146L15.7482 29.157L22.6971 22.1013L25.6229 25.0721L28.183 22.4726C26.842 21.111 25.501 19.7493 24.16 18.3877C21.0513 15.2312 17.9426 15.0455 14.4682 18.5734"
            stroke="white" style="stroke: currentColor" stroke-linecap="round" stroke-linejoin="round" />
    </symbol>
    <symbol id="einzelmassnahmen" viewBox="0 0 40 40" fill="none">
        <path d="M25.1641 8.6875L28.4984 11.8125" stroke="white" style="stroke: currentColor" stroke-linecap="square"
            stroke-linejoin="round" />
        <path d="M18.4547 5.5L20.1625 4L21.8297 5.5625" stroke="white" style="stroke: currentColor"
            stroke-linecap="square" stroke-linejoin="round" />
        <path d="M11.6234 11.5L15.039 8.5" stroke="white" style="stroke: currentColor" stroke-linecap="square"
            stroke-linejoin="round" />
        <path d="M33.5 35.5302V16.5L31.8328 14.9375" stroke="white" style="stroke: currentColor"
            stroke-linejoin="round" />
        <path d="M6.5 35.0082V16L8.20781 14.5" stroke="white" style="stroke: currentColor" stroke-linejoin="round" />
        <path d="M0.5 35.5L39.5 35.5298" stroke="white" style="stroke: currentColor" stroke-linecap="round" />
        <path
            d="M17.4691 17.4183L20.9298 20.879L14.0327 27.7761L16.0292 29.7727L22.9264 22.8755L25.8304 25.7796L28.3715 23.2385C27.0405 21.9075 25.7094 20.5765 24.3784 19.2455C21.2928 16.1599 18.2073 15.9784 14.7587 19.427"
            stroke="white" style="stroke: currentColor" stroke-linecap="round" stroke-linejoin="round" />
    </symbol>
    <symbol id="settings" viewBox="0 0 40 40" fill="none">
        <path
            d="M31.4595 19.308C31.4866 19.7689 31.4866 20.2311 31.4595 20.692C31.4405 21.0076 31.5393 21.319 31.7369 21.5658L33.999 24.3929C33.7395 25.2181 33.4071 26.0185 33.0059 26.7847L29.4029 27.1929C29.0892 27.2278 28.7995 27.3778 28.5899 27.6139C28.283 27.9591 27.9562 28.286 27.6111 28.5929C27.375 28.8026 27.225 29.0923 27.1902 29.4061L26.79 33.0066C26.024 33.4081 25.2238 33.7406 24.3987 34L21.5706 31.7374C21.3443 31.5565 21.0632 31.4581 20.7735 31.4583H20.697C20.2361 31.4854 19.7741 31.4854 19.3132 31.4583C18.9977 31.4393 18.6864 31.5382 18.4396 31.7358L15.6051 34C14.7801 33.7404 13.9799 33.4079 13.2138 33.0066L12.8057 29.4077C12.7708 29.0939 12.6209 28.8042 12.3848 28.5945C12.0397 28.2876 11.7128 27.9607 11.406 27.6155C11.1964 27.3794 10.9067 27.2294 10.5929 27.1945L6.99319 26.7927C6.59176 26.0265 6.25938 25.2261 6 24.4009L8.26218 21.5722C8.45971 21.3254 8.55856 21.014 8.53957 20.6984C8.51247 20.2375 8.51247 19.7753 8.53957 19.3143C8.55856 18.9988 8.45971 18.6874 8.26218 18.4405L6 15.6071C6.25958 14.7819 6.59195 13.9815 6.99319 13.2153L10.5913 12.8071C10.9051 12.7722 11.1948 12.6222 11.4044 12.3861C11.7112 12.0409 12.0381 11.714 12.3832 11.4071C12.6202 11.1973 12.7708 10.9069 12.8057 10.5923L13.2058 6.99339C13.9718 6.59188 14.7721 6.25943 15.5971 6L18.4252 8.26264C18.672 8.46021 18.9833 8.55909 19.2989 8.54009C19.7597 8.51298 20.2218 8.51298 20.6826 8.54009C20.9982 8.55909 21.3095 8.46021 21.5563 8.26264L24.3892 6C25.2141 6.25963 26.0144 6.59207 26.7805 6.99339L27.1886 10.5923C27.2234 10.9061 27.3734 11.1958 27.6095 11.4055C27.9546 11.7124 28.2814 12.0393 28.5883 12.3845C28.7979 12.6206 29.0876 12.7706 29.4014 12.8055L33.0011 13.2057C33.4025 13.9719 33.7349 14.7723 33.9943 15.5975L31.7321 18.4262C31.5326 18.6751 31.4337 18.9897 31.4547 19.308H31.4595Z"
            stroke="white" style="stroke: currentColor" stroke-linejoin="round" />
        <path
            d="M26.5 20C26.5 23.5899 23.5904 26.5 20.0013 26.5C16.4122 26.5 13.5027 23.5899 13.5027 20C13.5027 16.4101 16.4122 13.5 20.0013 13.5C23.5904 13.5 26.5 16.4101 26.5 20Z"
            stroke="white" style="stroke: currentColor" />
    </symbol>
    <symbol id="clipboard" viewBox="0 0 25 25">
        <path fill="white" style="fill: currentColor"
            d="M21.875 5.46875V22.6562C21.875 23.9507 20.8257 25 19.5312 25H5.46875C4.17432 25 3.125 23.9507 3.125 22.6562V5.46875C3.125 4.17432 4.17432 3.125 5.46875 3.125H9.375C9.375 1.40186 10.7769 0 12.5 0C14.2231 0 15.625 1.40186 15.625 3.125H19.5312C20.8257 3.125 21.875 4.17432 21.875 5.46875ZM12.5 1.95312C11.8528 1.95312 11.3281 2.47778 11.3281 3.125C11.3281 3.77222 11.8528 4.29688 12.5 4.29688C13.1472 4.29688 13.6719 3.77222 13.6719 3.125C13.6719 2.47778 13.1472 1.95312 12.5 1.95312ZM17.1875 7.51953V6.54297C17.1875 6.46527 17.1566 6.39075 17.1017 6.33581C17.0467 6.28087 16.9722 6.25 16.8945 6.25H8.10547C8.02777 6.25 7.95325 6.28087 7.89831 6.33581C7.84337 6.39075 7.8125 6.46527 7.8125 6.54297V7.51953C7.8125 7.59723 7.84337 7.67175 7.89831 7.72669C7.95325 7.78163 8.02777 7.8125 8.10547 7.8125H16.8945C16.9722 7.8125 17.0467 7.78163 17.1017 7.72669C17.1566 7.67175 17.1875 7.59723 17.1875 7.51953Z" />
    </symbol>
    <symbol id="email" viewBox="0 0 25 25">
        <path fill="white" style="fill: currentColor"
            d="M23.2422 0.156286L0.610349 13.2129C-0.27344 13.7207 -0.161135 14.9512 0.717771 15.3223L5.9082 17.5L19.9365 5.13675C20.2051 4.8975 20.5859 5.26371 20.3564 5.54203L8.59375 19.8731V23.8037C8.59375 24.9561 9.98535 25.4102 10.6689 24.5752L13.7695 20.8008L19.8535 23.3496C20.5469 23.6426 21.3379 23.208 21.4648 22.461L24.9805 1.36722C25.1465 0.380895 24.0869 -0.331996 23.2422 0.156286Z" />
    </symbol>
    <symbol id="clipboard-checked" viewBox="0 0 25 25">
        <path fill="white" style="fill: currentColor"
            d="M19.5312 3.125H15.625C15.625 1.40137 14.2236 0 12.5 0C10.7764 0 9.375 1.40137 9.375 3.125H5.46875C4.1748 3.125 3.125 4.1748 3.125 5.46875V22.6562C3.125 23.9502 4.1748 25 5.46875 25H19.5312C20.8252 25 21.875 23.9502 21.875 22.6562V5.46875C21.875 4.1748 20.8252 3.125 19.5312 3.125ZM12.5 1.95312C13.1494 1.95312 13.6719 2.47559 13.6719 3.125C13.6719 3.77441 13.1494 4.29688 12.5 4.29688C11.8506 4.29688 11.3281 3.77441 11.3281 3.125C11.3281 2.47559 11.8506 1.95312 12.5 1.95312ZM18.418 12.2715L11.4355 19.1953C11.2061 19.4248 10.835 19.4199 10.6055 19.1904L6.57227 15.123C6.34277 14.8936 6.34766 14.5225 6.57715 14.293L7.96387 12.916C8.19336 12.6865 8.56445 12.6914 8.79395 12.9209L11.04 15.1865L16.2158 10.0498C16.4453 9.82031 16.8164 9.8252 17.0459 10.0547L18.4229 11.4414C18.6523 11.6758 18.6475 12.042 18.418 12.2715Z" />
    </symbol>
    <symbol id="close" viewBox="0 0 512 512">
        <path fill="white" style="fill: currentColor"
            d="M390.248 91.582l30.17 30.17L286.168 256l134.25 134.248-30.17 30.17L256 286.168l-134.248 134.25-30.17-30.17L225.83 256 91.582 121.752l30.17-30.17L256 225.83 390.248 91.582z" />
    </symbol>
    <symbol id="trash" viewBox="0 0 25 25">
        <path fill="white" style="fill: currentColor"
            d="M21.5357 3.57143H16.1786V2.23214C16.1786 1.64014 15.9434 1.07239 15.5248 0.65378C15.1062 0.235172 14.5384 0 13.9464 0H9.48214C8.89014 0 8.32239 0.235172 7.90378 0.65378C7.48517 1.07239 7.25 1.64014 7.25 2.23214V3.57143H1.89286C1.65606 3.57143 1.42896 3.6655 1.26151 3.83294C1.09407 4.00038 1 4.22749 1 4.46429C1 4.70109 1.09407 4.92819 1.26151 5.09563C1.42896 5.26307 1.65606 5.35714 1.89286 5.35714H2.84152L3.90179 22.3728C3.98103 23.8711 5.12946 25 6.58036 25H16.8482C18.3064 25 19.4319 23.8962 19.5268 22.3772L20.5871 5.35714H21.5357C21.7725 5.35714 21.9996 5.26307 22.1671 5.09563C22.3345 4.92819 22.4286 4.70109 22.4286 4.46429C22.4286 4.22749 22.3345 4.00038 22.1671 3.83294C21.9996 3.6655 21.7725 3.57143 21.5357 3.57143ZM8.17467 21.4286H8.14286C7.91147 21.4287 7.68906 21.339 7.5225 21.1784C7.35594 21.0178 7.25824 20.7988 7.25 20.5675L6.80357 8.06752C6.79514 7.83072 6.88111 7.60027 7.04259 7.42686C7.20407 7.25345 7.42782 7.15129 7.66462 7.14286C7.90142 7.13442 8.13187 7.2204 8.30528 7.38188C8.47869 7.54335 8.58085 7.76711 8.58929 8.00391L9.03571 20.5039C9.03997 20.6212 9.02106 20.7381 8.98008 20.8481C8.93909 20.958 8.87684 21.0588 8.79687 21.1447C8.7169 21.2306 8.62078 21.2999 8.51402 21.3486C8.40726 21.3973 8.29194 21.4245 8.17467 21.4286ZM12.6071 20.5357C12.6071 20.7725 12.5131 20.9996 12.3456 21.1671C12.1782 21.3345 11.9511 21.4286 11.7143 21.4286C11.4775 21.4286 11.2504 21.3345 11.0829 21.1671C10.9155 20.9996 10.8214 20.7725 10.8214 20.5357V8.03571C10.8214 7.79891 10.9155 7.57181 11.0829 7.40437C11.2504 7.23693 11.4775 7.14286 11.7143 7.14286C11.9511 7.14286 12.1782 7.23693 12.3456 7.40437C12.5131 7.57181 12.6071 7.79891 12.6071 8.03571V20.5357ZM14.3929 3.57143H9.03571V2.23214C9.03504 2.17333 9.04613 2.11498 9.06833 2.06051C9.09052 2.00604 9.12338 1.95656 9.16497 1.91497C9.20656 1.87338 9.25604 1.84052 9.31051 1.81833C9.36498 1.79613 9.42333 1.78504 9.48214 1.78571H13.9464C14.0052 1.78504 14.0636 1.79613 14.1181 1.81833C14.1725 1.84052 14.222 1.87338 14.2636 1.91497C14.3052 1.95656 14.338 2.00604 14.3602 2.06051C14.3824 2.11498 14.3935 2.17333 14.3929 2.23214V3.57143ZM16.1786 20.5675C16.1703 20.7988 16.0726 21.0178 15.9061 21.1784C15.7395 21.339 15.5171 21.4287 15.2857 21.4286H15.2533C15.1361 21.4244 15.0209 21.3972 14.9142 21.3484C14.8075 21.2997 14.7114 21.2304 14.6315 21.1445C14.5516 21.0587 14.4894 20.9579 14.4484 20.848C14.4075 20.738 14.3886 20.6211 14.3929 20.5039L14.8393 8.00391C14.8435 7.88665 14.8707 7.77137 14.9194 7.66465C14.9682 7.55792 15.0374 7.46183 15.1233 7.38188C15.2092 7.30192 15.3099 7.23966 15.4198 7.19865C15.5298 7.15764 15.6467 7.13868 15.764 7.14286C15.8812 7.14703 15.9965 7.17426 16.1032 7.22299C16.2099 7.27172 16.306 7.341 16.386 7.42686C16.4659 7.51272 16.5282 7.61349 16.5692 7.72342C16.6102 7.83334 16.6292 7.95027 16.625 8.06752L16.1786 20.5675Z" />
    </symbol>
</svg>