<?xml version="1.0" encoding="UTF-8"?>
<svg xmlns="http://www.w3.org/2000/svg">
    <symbol id="bs-logo-round" viewBox="0 0 60 60" fill="none">
        <path
            d="M59.5 30C59.5 46.2924 46.2924 59.5 30 59.5C13.7076 59.5 0.5 46.2924 0.5 30C0.5 13.7076 13.7076 0.5 30 0.5C46.2924 0.5 59.5 13.7076 59.5 30Z"
            stroke="white" />
        <path
            d="M7.43456 21.25L14.5196 21.2719C17.8369 21.2822 20.2786 22.5876 20.269 25.6774C20.2627 27.721 18.7864 29.0143 17.0899 29.5079C19.282 30.0619 20.7255 31.5386 20.7185 33.7857C20.7068 37.5776 17.4342 38.7395 13.9716 38.7288L7.38538 38.7084L7.4394 21.25H7.43456ZM14.1439 28.4527C16.3134 28.4594 17.4156 27.5379 17.4205 25.9688C17.4249 24.545 16.5028 23.5978 14.2364 23.5908L10.1733 23.5782L10.1582 28.4404L14.1439 28.4527ZM14.221 36.3856C16.7151 36.3933 17.8658 35.4234 17.8715 33.5783C17.877 31.8059 16.8826 30.7809 14.19 30.7726L10.151 30.7601L10.1337 36.3729L14.221 36.3856Z"
            fill="white" />
        <path
            d="M39.0701 32.911L41.937 32.9199C42.0795 35.3902 43.6684 36.8141 46.0172 36.8214C48.1867 36.8281 49.7349 35.7626 49.7402 34.0385C49.7449 32.5421 48.5992 31.8654 46.5329 31.3602L44.4666 30.8308C41.8487 30.1737 39.7081 28.6222 39.7166 25.8764C39.7256 22.9561 42.449 20.8482 45.9164 20.859C49.6309 20.8705 52.0939 23.0719 52.2822 26.3898L49.4395 26.381C49.3193 24.5355 47.9528 23.2092 45.8075 23.2026C44.0108 23.197 42.5356 24.1659 42.531 25.6381C42.5265 27.0861 43.5706 27.7383 45.54 28.2674L47.7804 28.8458C50.5241 29.5516 52.5876 30.9818 52.579 33.7761C52.5696 36.8174 49.9181 39.1532 45.9276 39.1408C41.8209 39.1329 39.2327 36.7035 39.0701 32.911Z"
            fill="white" />
        <path d="M22.8662 29.9482H36.9121" stroke="white" stroke-width="2" />
    </symbol>
    <symbol id="profile" viewBox="0 0 40 40" fill="none">
        <path d="M4.5 34.5C7.52583 29.2692 13.5225 25.5 20 25.5C26.4775 25.5 32.4742 29.2692 35.5 34.5" stroke="#CDCDCD"
            stroke-linecap="round" />
        <path
            d="M30.5 15C30.5 20.799 25.799 25.5 20 25.5C14.201 25.5 9.5 20.799 9.5 15C9.5 9.20101 14.201 4.5 20 4.5C25.799 4.5 30.5 9.20101 30.5 15Z"
            stroke="#CDCDCD" />
    </symbol>
    <symbol id="profile" viewBox="0 0 40 40" fill="none">
        <path d="M4.5 34.5C7.52583 29.2692 13.5225 25.5 20 25.5C26.4775 25.5 32.4742 29.2692 35.5 34.5" stroke="white"
            stroke-linecap="round" />
        <path
            d="M30.5 15C30.5 20.799 25.799 25.5 20 25.5C14.201 25.5 9.5 20.799 9.5 15C9.5 9.20101 14.201 4.5 20 4.5C25.799 4.5 30.5 9.20101 30.5 15Z"
            stroke="white" />
    </symbol>
    <symbol id="portfolio" viewBox="0 0 40 40" fill="none">
        <path
            d="M4 6.5H13C13.2761 6.5 13.5 6.72386 13.5 7V16C13.5 16.2761 13.2761 16.5 13 16.5H4C3.72386 16.5 3.5 16.2761 3.5 16V7C3.5 6.72386 3.72386 6.5 4 6.5Z"
            stroke="white" stroke-linejoin="round" />
        <path
            d="M4 23.5H13C13.2761 23.5 13.5 23.7239 13.5 24V33C13.5 33.2761 13.2761 33.5 13 33.5H4C3.72386 33.5 3.5 33.2761 3.5 33V24C3.5 23.7239 3.72386 23.5 4 23.5Z"
            stroke="white" stroke-linejoin="round" />
        <path d="M17.5 6.5L36.5 6.5" stroke="white" stroke-linecap="round" stroke-linejoin="round" />
        <path d="M17.5 23.5H36.5" stroke="white" stroke-linecap="round" stroke-linejoin="round" />
        <path d="M17.5 11.5H36.5" stroke="white" stroke-linecap="round" stroke-linejoin="round" />
        <path d="M17.5 28.5H36.5" stroke="white" stroke-linecap="round" stroke-linejoin="round" />
        <path d="M17.5 16.5H36.5" stroke="white" stroke-linecap="round" stroke-linejoin="round" />
        <path d="M17.5 33.5H36.5" stroke="white" stroke-linecap="round" stroke-linejoin="round" />
    </symbol>
    <symbol id="neubau" viewBox="0 0 40 40" fill="none">
        <path
            d="M20 15.011L21.5898 20.9157L27.4945 22.5055L21.5898 24.0953L20 30L18.4102 24.0953L12.5055 22.5055L18.4102 20.9157L20 15.011Z"
            stroke="white" stroke-linejoin="round" />
        <path d="M6.5 35.5V17.1703L20 4.5L33.5 17.1703V35.5" stroke="white" stroke-linecap="square"
            stroke-linejoin="round" />
        <path d="M0.5 35.5L39.5 35.5" stroke="white" stroke-linecap="round" />
    </symbol>
    <symbol id="sanierung" viewBox="0 0 40 40" fill="none">
        <path d="M6.5 35.5V17.1703L20 4.5L33.5 17.1703V35.5" stroke="white" stroke-linecap="square"
            stroke-linejoin="round" />
        <path d="M0.5 35.5L39.5 35.5" stroke="white" stroke-linecap="round" />
        <path
            d="M17.2552 16.9883L20.8313 20.5644L13.7043 27.6914L15.7674 29.7545L22.8944 22.6275L25.8953 25.6283L28.521 23.0026C27.1456 21.6272 25.7702 20.2518 24.3948 18.8764C21.2064 15.688 18.018 15.5004 14.4545 19.064"
            stroke="white" stroke-linecap="round" stroke-linejoin="round" />
    </symbol>
    <symbol id="settings" viewBox="0 0 40 40" fill="none">
        <path
            d="M31.4595 19.308C31.4866 19.7689 31.4866 20.2311 31.4595 20.692C31.4405 21.0076 31.5393 21.319 31.7369 21.5658L33.999 24.3929C33.7395 25.2181 33.4071 26.0185 33.0059 26.7847L29.4029 27.1929C29.0892 27.2278 28.7995 27.3778 28.5899 27.6139C28.283 27.9591 27.9562 28.286 27.6111 28.5929C27.375 28.8026 27.225 29.0923 27.1902 29.4061L26.79 33.0066C26.024 33.4081 25.2238 33.7406 24.3987 34L21.5706 31.7374C21.3443 31.5565 21.0632 31.4581 20.7735 31.4583H20.697C20.2361 31.4854 19.7741 31.4854 19.3132 31.4583C18.9977 31.4393 18.6864 31.5382 18.4396 31.7358L15.6051 34C14.7801 33.7404 13.9799 33.4079 13.2138 33.0066L12.8057 29.4077C12.7708 29.0939 12.6209 28.8042 12.3848 28.5945C12.0397 28.2876 11.7128 27.9607 11.406 27.6155C11.1964 27.3794 10.9067 27.2294 10.5929 27.1945L6.99319 26.7927C6.59176 26.0265 6.25938 25.2261 6 24.4009L8.26218 21.5722C8.45971 21.3254 8.55856 21.014 8.53957 20.6984C8.51247 20.2375 8.51247 19.7753 8.53957 19.3143C8.55856 18.9988 8.45971 18.6874 8.26218 18.4405L6 15.6071C6.25958 14.7819 6.59195 13.9815 6.99319 13.2153L10.5913 12.8071C10.9051 12.7722 11.1948 12.6222 11.4044 12.3861C11.7112 12.0409 12.0381 11.714 12.3832 11.4071C12.6202 11.1973 12.7708 10.9069 12.8057 10.5923L13.2058 6.99339C13.9718 6.59188 14.7721 6.25943 15.5971 6L18.4252 8.26264C18.672 8.46021 18.9833 8.55909 19.2989 8.54009C19.7597 8.51298 20.2218 8.51298 20.6826 8.54009C20.9982 8.55909 21.3095 8.46021 21.5563 8.26264L24.3892 6C25.2141 6.25963 26.0144 6.59207 26.7805 6.99339L27.1886 10.5923C27.2234 10.9061 27.3734 11.1958 27.6095 11.4055C27.9546 11.7124 28.2814 12.0393 28.5883 12.3845C28.7979 12.6206 29.0876 12.7706 29.4014 12.8055L33.0011 13.2057C33.4025 13.9719 33.7349 14.7723 33.9943 15.5975L31.7321 18.4262C31.5326 18.6751 31.4337 18.9897 31.4547 19.308H31.4595Z"
            stroke="white" stroke-linejoin="round" />
        <path
            d="M26.5 20C26.5 23.5899 23.5904 26.5 20.0013 26.5C16.4122 26.5 13.5027 23.5899 13.5027 20C13.5027 16.4101 16.4122 13.5 20.0013 13.5C23.5904 13.5 26.5 16.4101 26.5 20Z"
            stroke="white" />
    </symbol>
    <symbol id="clipboard" viewBox="0 0 25 25">
        <path
            d="M21.875 5.46875V22.6562C21.875 23.9507 20.8257 25 19.5312 25H5.46875C4.17432 25 3.125 23.9507 3.125 22.6562V5.46875C3.125 4.17432 4.17432 3.125 5.46875 3.125H9.375C9.375 1.40186 10.7769 0 12.5 0C14.2231 0 15.625 1.40186 15.625 3.125H19.5312C20.8257 3.125 21.875 4.17432 21.875 5.46875ZM12.5 1.95312C11.8528 1.95312 11.3281 2.47778 11.3281 3.125C11.3281 3.77222 11.8528 4.29688 12.5 4.29688C13.1472 4.29688 13.6719 3.77222 13.6719 3.125C13.6719 2.47778 13.1472 1.95312 12.5 1.95312ZM17.1875 7.51953V6.54297C17.1875 6.46527 17.1566 6.39075 17.1017 6.33581C17.0467 6.28087 16.9722 6.25 16.8945 6.25H8.10547C8.02777 6.25 7.95325 6.28087 7.89831 6.33581C7.84337 6.39075 7.8125 6.46527 7.8125 6.54297V7.51953C7.8125 7.59723 7.84337 7.67175 7.89831 7.72669C7.95325 7.78163 8.02777 7.8125 8.10547 7.8125H16.8945C16.9722 7.8125 17.0467 7.78163 17.1017 7.72669C17.1566 7.67175 17.1875 7.59723 17.1875 7.51953Z" />
    </symbol>
    <symbol id="email" viewBox="0 0 25 25">
        <path
            d="M23.2422 0.156286L0.610349 13.2129C-0.27344 13.7207 -0.161135 14.9512 0.717771 15.3223L5.9082 17.5L19.9365 5.13675C20.2051 4.8975 20.5859 5.26371 20.3564 5.54203L8.59375 19.8731V23.8037C8.59375 24.9561 9.98535 25.4102 10.6689 24.5752L13.7695 20.8008L19.8535 23.3496C20.5469 23.6426 21.3379 23.208 21.4648 22.461L24.9805 1.36722C25.1465 0.380895 24.0869 -0.331996 23.2422 0.156286Z" />
    </symbol>
    <symbol id="clipboard-checked" viewBox="0 0 25 25">
        <path
            d="M19.5312 3.125H15.625C15.625 1.40137 14.2236 0 12.5 0C10.7764 0 9.375 1.40137 9.375 3.125H5.46875C4.1748 3.125 3.125 4.1748 3.125 5.46875V22.6562C3.125 23.9502 4.1748 25 5.46875 25H19.5312C20.8252 25 21.875 23.9502 21.875 22.6562V5.46875C21.875 4.1748 20.8252 3.125 19.5312 3.125ZM12.5 1.95312C13.1494 1.95312 13.6719 2.47559 13.6719 3.125C13.6719 3.77441 13.1494 4.29688 12.5 4.29688C11.8506 4.29688 11.3281 3.77441 11.3281 3.125C11.3281 2.47559 11.8506 1.95312 12.5 1.95312ZM18.418 13.2715L11.4355 20.1953C11.2061 20.4248 10.835 20.4199 10.6055 20.1904L6.57227 16.123C6.34277 15.8936 6.34766 15.5225 6.57715 15.293L7.96387 13.916C8.19336 13.6865 8.56445 13.6914 8.79395 13.9209L11.04 16.1865L16.2158 11.0498C16.4453 10.8203 16.8164 10.8252 17.0459 11.0547L18.4229 12.4414C18.6523 12.6758 18.6475 13.042 18.418 13.2715Z" />
    </symbol>
</svg>